# xmcd
#
# Track frame offsets: 
#        150
#        18012
#        41382
#        59207
#
# Disc length: 1097 seconds
#
# Revision: 0
# Processed by: cddbd v1.5.2PL0 Copyright (c) Steve Scherf et al.
# Submitted via: ExactAudioCopy v1.0b3
#
DISCID=2b044704
DTITLE=茅原実里 - ずっと...一緒／負けない～一途バージョン～
DYEAR=1900
DGENRE=
TTITLE0=ずっと...一緒
TTITLE1=負けない～一途バージョン～
TTITLE2=ずっと...一緒（instrumental）
TTITLE3=負けない～一途バージョン～（instrumental）
EXTD=
EXTT0=
EXTT1=
EXTT2=
EXTT3=
PLAYORDER=
